<svg width="58" height="10" viewBox="0 0 58 10" fill="none" xmlns="http://www.w3.org/2000/svg">
<path d="M40.9883 4.60747C40.9883 2.47705 39.2613 0.75 37.1309 0.75C35.0004 0.75 33.2734 2.47705 33.2734 4.60747C33.2734 6.7379 35.0004 8.46495 37.1309 8.46495C39.2613 8.46495 40.9883 6.7379 40.9883 4.60747Z" stroke="#12C868" stroke-opacity="0.5" stroke-width="1.5"/>
<path d="M57.25 4.60747C57.25 2.47705 55.5229 0.75 53.3925 0.75C51.2621 0.75 49.535 2.47705 49.535 4.60747C49.535 6.7379 51.2621 8.46495 53.3925 8.46495C55.5229 8.46495 57.25 6.7379 57.25 4.60747Z" stroke="#12C868" stroke-opacity="0.25" stroke-width="1.5"/>
<path d="M8.46495 4.60747C8.46495 2.47705 6.7379 0.75 4.60747 0.75C2.47705 0.75 0.75 2.47705 0.75 4.60747C0.75 6.7379 2.47705 8.46495 4.60747 8.46495C6.7379 8.46495 8.46495 6.7379 8.46495 4.60747Z" stroke="#12C868" stroke-width="1.5"/>
<path d="M24.7266 4.60747C24.7266 2.47705 22.9996 0.75 20.8691 0.75C18.7387 0.75 17.0117 2.47705 17.0117 4.60747C17.0117 6.7379 18.7387 8.46495 20.8691 8.46495C22.9996 8.46495 24.7266 6.7379 24.7266 4.60747Z" stroke="#12C868" stroke-opacity="0.75" stroke-width="1.5"/>
</svg>
