<svg width="44" height="44" viewBox="0 0 44 44" fill="none" xmlns="http://www.w3.org/2000/svg">
<path d="M43.8462 21.9231C43.8462 9.81531 34.0309 0 21.9231 0C9.81531 0 0 9.81531 0 21.9231C0 34.0309 9.81531 43.8462 21.9231 43.8462C34.0309 43.8462 43.8462 34.0309 43.8462 21.9231Z" fill="#05A0EB"/>
<g clip-path="url(#clip0_1_12)">
<path d="M20.0352 25.1538L19.744 29.0701C20.1585 29.0701 20.3401 28.8991 20.5559 28.6919L22.5015 26.9064L26.5333 29.7409C27.2732 30.1354 27.7939 29.9283 27.9926 29.0865L30.6405 17.1799C30.8769 16.1342 30.2466 15.7232 29.5272 15.9829L13.9686 21.7011C12.9067 22.0957 12.9239 22.6646 13.7871 22.9211L17.7641 24.1081L27.0026 18.5576C27.4377 18.2814 27.8316 18.4327 27.5062 18.7122L20.0352 25.1538Z" fill="white"/>
</g>
<defs>
<clipPath id="clip0_1_12">
<rect width="18" height="15" fill="white" transform="translate(13 15.4229)"/>
</clipPath>
</defs>
</svg>
