<svg width="44" height="45" viewBox="0 0 44 45" fill="none" xmlns="http://www.w3.org/2000/svg">
<path d="M43.8462 22.5002C43.8462 10.3925 34.0309 0.577148 21.9231 0.577148C9.81531 0.577148 0 10.3925 0 22.5002C0 34.608 9.81531 44.4233 21.9231 44.4233C34.0309 44.4233 43.8462 34.608 43.8462 22.5002Z" fill="#976FCC"/>
<path d="M21.6462 13C16.3209 13 12 17.3209 12 22.6462C12 24.7785 12.6902 26.7426 13.8574 28.3418L12.6285 31.9781L16.4611 30.7828C17.9594 31.7368 19.7383 32.2923 21.6462 32.2923C26.9715 32.2923 31.2924 27.9715 31.2924 22.6462C31.2924 17.3209 26.9715 13 21.6462 13ZM26.0625 27.82C24.3117 28.5214 22.2242 27.8424 19.9403 26.1085C17.6564 24.3745 16.1525 21.9335 16.0515 20.121C15.9505 18.3085 17.4263 17.3938 18.2288 17.3994C19.0312 17.405 19.9122 19.9695 19.9234 20.3623C19.9347 20.7607 18.9414 21.4678 18.9021 21.8044C18.8629 22.1411 20.2545 23.8021 20.8437 24.2511C21.4273 24.6944 22.6338 25.5473 23.2567 25.4687C23.874 25.3846 24.2836 24.1444 24.6764 24.0659C25.0692 23.9873 27.2128 25.0535 27.426 25.3285C27.6393 25.609 27.6168 27.2027 26.0625 27.82Z" fill="white"/>
</svg>
