<svg width="44" height="45" viewBox="0 0 44 45" fill="none" xmlns="http://www.w3.org/2000/svg">
<path d="M43.8462 22.5002C43.8462 10.3925 34.0309 0.577148 21.9231 0.577148C9.81531 0.577148 0 10.3925 0 22.5002C0 34.608 9.81531 44.4233 21.9231 44.4233C34.0309 44.4233 43.8462 34.608 43.8462 22.5002Z" fill="#12C868"/>
<path d="M24.1775 13H19.7475C15.4591 13 12 16.1131 12 19.9771V22.9673C12 25.6662 13.7194 28.1193 16.43 29.2663V32.6069C16.43 32.7753 16.602 32.9301 16.8194 32.9301C16.9054 32.9301 17.0066 32.8982 17.0774 32.839L20.2785 29.9399H24.1775C28.471 29.9399 31.9301 26.8268 31.9301 22.9627V19.9726C31.9301 16.1131 28.471 13 24.1775 13ZM27.0904 26.0758L25.9829 27.0726C24.7894 28.1148 21.7248 26.9178 19.0142 24.4374C16.3036 21.9569 15.1 19.1488 16.2429 18.1066L17.3504 17.1098C17.7955 16.7412 18.4933 16.7594 18.9333 17.1417L20.5364 18.6436C20.946 19.0441 20.946 19.6403 20.501 20.0409C20.3797 20.1501 20.2431 20.2092 20.0914 20.273C19.5301 20.4277 19.2418 20.9147 19.3783 21.4244C19.6514 22.5304 21.1989 23.9094 22.3772 24.1825C22.9233 24.3054 23.4847 24.0277 23.6718 23.5544C23.8589 23.0629 24.4708 22.7898 25.0524 22.9582C25.2243 23.0037 25.3609 23.1129 25.4974 23.204L27.1005 24.7059C27.5 25.0654 27.5 25.6799 27.0904 26.0758ZM22.9537 17.7379C22.8323 17.7379 22.7312 17.7379 22.63 17.7698C22.4429 17.8016 22.2406 17.6605 22.2204 17.4648C22.2002 17.2691 22.3418 17.1144 22.5441 17.0962C22.6806 17.0643 22.8171 17.0643 22.9537 17.0643C24.9968 17.0643 26.6353 18.5662 26.6656 20.3776C26.6656 20.5005 26.6656 20.6234 26.6302 20.7463C26.5948 20.9147 26.4431 21.0694 26.2206 21.0376C25.9981 21.0057 25.8615 20.8692 25.8969 20.6689C25.8969 20.5597 25.9323 20.4687 25.9323 20.3776C25.9172 18.9349 24.5871 17.7379 22.9537 17.7379ZM25.1687 20.405C25.1333 20.5734 24.9816 20.7281 24.7591 20.6962C24.5871 20.6644 24.4354 20.5415 24.4354 20.405C24.4354 19.6859 23.7729 19.0851 22.9689 19.0851C22.7817 19.1169 22.5795 18.9622 22.5592 18.7801C22.5238 18.6117 22.6958 18.4297 22.8829 18.4115H22.9335C24.2129 18.4115 25.1687 19.299 25.1687 20.405ZM27.9956 21.4609C27.9602 21.6293 27.7731 21.7521 27.586 21.7385C27.3989 21.7248 27.2624 21.5382 27.2775 21.3698C27.2775 21.338 27.2775 21.338 27.2775 21.3243C27.3635 21.033 27.3989 20.7281 27.3989 20.405C27.3989 18.2112 25.4064 16.418 22.9689 16.418C22.8475 16.418 22.7463 16.418 22.6452 16.418C22.4581 16.4499 22.2558 16.2951 22.2558 16.1131C22.2204 15.9447 22.3923 15.7626 22.5795 15.7626C22.716 15.7626 22.8525 15.7308 22.9689 15.7308C25.816 15.7308 28.1473 17.8153 28.1473 20.3913C28.1322 20.7417 28.0816 21.1241 27.9956 21.4609Z" fill="white"/>
</svg>
