<svg width="20" height="17" viewBox="0 0 20 17" fill="none" xmlns="http://www.w3.org/2000/svg">
<path d="M18.8986 2.12687H1.10145C0.521739 2.12687 0 1.6791 0 1.06343C0 0.447761 0.521739 0 1.10145 0H18.8986C19.5362 0 20 0.503731 20 1.06343C20 1.62313 19.4783 2.12687 18.8986 2.12687Z" fill="#1C1C1C"/>
<path d="M18.8986 16.1269H1.10145C0.521739 16.1269 0 15.6791 0 15.0634C0 14.4478 0.521739 14 1.10145 14H18.8986C19.5362 14 20 14.5037 20 15.0634C20 15.6231 19.4783 16.1269 18.8986 16.1269Z" fill="#1C1C1C"/>
<path d="M18.8986 9.12687H1.10145C0.521739 9.12687 0 8.6791 0 8.06343C0 7.44776 0.521739 7 1.10145 7H18.8986C19.5362 7 20 7.50373 20 8.06343C20 8.62313 19.4783 9.12687 18.8986 9.12687Z" fill="#1C1C1C"/>
</svg>
