<svg width="33" height="33" viewBox="0 0 33 33" fill="none" xmlns="http://www.w3.org/2000/svg">
<g filter="url(#filter0_i_12_207)">
<path d="M33 16.5C33 7.3873 25.6127 0 16.5 0C7.3873 0 0 7.3873 0 16.5C0 25.6127 7.3873 33 16.5 33C25.6127 33 33 25.6127 33 16.5Z" fill="#F38120"/>
</g>
<g clip-path="url(#clip0_12_207)">
<path d="M18.4086 15.9991L22.7045 11.7127C22.8926 11.5245 22.9983 11.2694 22.9983 11.0033C22.9983 10.7372 22.8926 10.482 22.7045 10.2939C22.5164 10.1057 22.2612 10 21.9952 10C21.7291 10 21.474 10.1057 21.2859 10.2939L17 14.5903L12.7141 10.2939C12.526 10.1057 12.2709 10 12.0048 10C11.7388 10 11.4836 10.1057 11.2955 10.2939C11.1074 10.482 11.0017 10.7372 11.0017 11.0033C11.0017 11.2694 11.1074 11.5245 11.2955 11.7127L15.5914 15.9991L11.2955 20.2856C11.2019 20.3785 11.1276 20.489 11.0768 20.6108C11.0261 20.7325 11 20.8631 11 20.995C11 21.1269 11.0261 21.2575 11.0768 21.3793C11.1276 21.501 11.2019 21.6116 11.2955 21.7044C11.3884 21.7981 11.4989 21.8724 11.6206 21.9232C11.7424 21.9739 11.8729 22 12.0048 22C12.1367 22 12.2673 21.9739 12.389 21.9232C12.5108 21.8724 12.6213 21.7981 12.7141 21.7044L17 17.408L21.2859 21.7044C21.3787 21.7981 21.4892 21.8724 21.611 21.9232C21.7327 21.9739 21.8633 22 21.9952 22C22.1271 22 22.2576 21.9739 22.3794 21.9232C22.5011 21.8724 22.6116 21.7981 22.7045 21.7044C22.7981 21.6116 22.8724 21.501 22.9232 21.3793C22.9739 21.2575 23 21.1269 23 20.995C23 20.8631 22.9739 20.7325 22.9232 20.6108C22.8724 20.489 22.7981 20.3785 22.7045 20.2856L18.4086 15.9991Z" fill="white"/>
</g>
<defs>
<filter id="filter0_i_12_207" x="0" y="0" width="33" height="33" filterUnits="userSpaceOnUse" color-interpolation-filters="sRGB">
<feFlood flood-opacity="0" result="BackgroundImageFix"/>
<feBlend mode="normal" in="SourceGraphic" in2="BackgroundImageFix" result="shape"/>
<feColorMatrix in="SourceAlpha" type="matrix" values="0 0 0 0 0 0 0 0 0 0 0 0 0 0 0 0 0 0 127 0" result="hardAlpha"/>
<feOffset/>
<feGaussianBlur stdDeviation="11"/>
<feComposite in2="hardAlpha" operator="arithmetic" k2="-1" k3="1"/>
<feColorMatrix type="matrix" values="0 0 0 0 1 0 0 0 0 1 0 0 0 0 1 0 0 0 0.25 0"/>
<feBlend mode="normal" in2="shape" result="effect1_innerShadow_12_207"/>
</filter>
<clipPath id="clip0_12_207">
<rect width="12" height="12" fill="white" transform="translate(11 10)"/>
</clipPath>
</defs>
</svg>
